<svg version="1.2" xmlns="http://www.w3.org/2000/svg" xmlns:xlink="http://www.w3.org/1999/xlink" overflow="visible" preserveAspectRatio="none" viewBox="0 0 20 19.99999" width="20" height="19.99999"><g transform="translate(0, 0)"><g transform="translate(-2.7755575615628914e-16, -2.7755575615628914e-16) rotate(0)"><path style="stroke-width: 0; stroke-linecap: butt; stroke-linejoin: miter; fill: rgb(0, 122, 195);" d="M10.76923,0.76923v3.05615c0,0.20402 -0.08108,0.39967 -0.22531,0.54393c-0.14423,0.14425 -0.33992,0.2253 -0.54392,0.2253c-0.204,0 -0.39969,-0.08105 -0.54392,-0.2253c-0.14423,-0.14426 -0.22531,-0.33992 -0.22531,-0.54393v-3.05615c0,-0.20401 0.08108,-0.39967 0.22531,-0.54393c0.14423,-0.14426 0.33992,-0.2253 0.54392,-0.2253c0.204,0 0.39969,0.08104 0.54392,0.2253c0.14423,0.14426 0.22531,0.33992 0.22531,0.54393zM13.82231,6.94692c0.204,-0.00005 0.39962,-0.08112 0.54385,-0.22538l2.70462,-2.70462c0.07346,-0.07096 0.13208,-0.15584 0.17238,-0.24969c0.04031,-0.09385 0.06154,-0.19478 0.06238,-0.29692c0.00092,-0.10214 -0.01854,-0.20343 -0.05723,-0.29796c-0.03869,-0.09454 -0.09577,-0.18042 -0.168,-0.25265c-0.07223,-0.07223 -0.15808,-0.12935 -0.25262,-0.16802c-0.09454,-0.03868 -0.19585,-0.05814 -0.298,-0.05725c-0.10215,0.00088 -0.20308,0.02211 -0.29692,0.06242c-0.09385,0.04032 -0.17877,0.09892 -0.24969,0.17238l-2.70462,2.70462c-0.10754,0.10758 -0.18077,0.24463 -0.21046,0.39382c-0.02969,0.14919 -0.01438,0.30383 0.04377,0.44437c0.05823,0.14054 0.15677,0.26067 0.28323,0.34519c0.12654,0.08453 0.27515,0.12966 0.42731,0.12969zM19.23077,9.23077h-3.82538c-0.204,0 -0.39969,0.08108 -0.54392,0.22531c-0.14423,0.14423 -0.22531,0.33992 -0.22531,0.54392c0,0.204 0.08108,0.39969 0.22531,0.54392c0.14423,0.14423 0.33992,0.22531 0.54392,0.22531h3.82538c0.204,0 0.39969,-0.08108 0.54392,-0.22531c0.14423,-0.14423 0.22531,-0.33992 0.22531,-0.54392c0,-0.204 -0.08108,-0.39969 -0.22531,-0.54392c-0.14423,-0.14423 -0.33992,-0.22531 -0.54392,-0.22531zM14.36615,13.27846c-0.14508,-0.14015 -0.33938,-0.21769 -0.54108,-0.21592c-0.20169,0.00177 -0.39462,0.08269 -0.53723,0.22531c-0.14262,0.14262 -0.22354,0.33554 -0.22531,0.53723c-0.00177,0.20169 0.07577,0.396 0.21592,0.54108l2.70462,2.70462c0.14508,0.14015 0.33938,0.21769 0.54108,0.21592c0.20169,-0.00177 0.39462,-0.08269 0.53723,-0.22531c0.14262,-0.14262 0.22354,-0.33554 0.22531,-0.53723c0.00177,-0.20169 -0.07577,-0.396 -0.21592,-0.54108zM10,14.63615c-0.204,0 -0.39969,0.08108 -0.54392,0.22531c-0.14423,0.14423 -0.22531,0.33992 -0.22531,0.54392v3.82538c0,0.204 0.08108,0.39969 0.22531,0.54392c0.14423,0.14423 0.33992,0.22531 0.54392,0.22531c0.204,0 0.39969,-0.08108 0.54392,-0.22531c0.14423,-0.14423 0.22531,-0.33992 0.22531,-0.54392v-3.82538c0,-0.204 -0.08108,-0.39969 -0.22531,-0.54392c-0.14423,-0.14423 -0.33992,-0.22531 -0.54392,-0.22531zM3.46154,15.45385l-0.52923,0.52923c-0.07347,0.07092 -0.13207,0.15585 -0.17238,0.24969c-0.04032,0.09385 -0.06154,0.19477 -0.06242,0.29692c-0.00088,0.10215 0.01858,0.20346 0.05725,0.298c0.03868,0.09454 0.09579,0.18038 0.16802,0.25262c0.07223,0.07223 0.15812,0.12931 0.25265,0.168c0.09453,0.03869 0.19582,0.05815 0.29796,0.05723c0.10214,-0.00085 0.20308,-0.02208 0.29692,-0.06238c0.09385,-0.04031 0.17873,-0.09892 0.24969,-0.17238l0.52615,-0.53231c0.12602,-0.14715 0.19187,-0.33646 0.18439,-0.53008c-0.00748,-0.19354 -0.08773,-0.37723 -0.22473,-0.51423c-0.13699,-0.137 -0.32064,-0.21723 -0.51424,-0.22469c-0.19359,-0.00746 -0.38288,0.05838 -0.53004,0.18438zM3.05615,10c0,-0.204 -0.08105,-0.39969 -0.2253,-0.54392c-0.14426,-0.14423 -0.33992,-0.22531 -0.54393,-0.22531h-1.51769c-0.20401,0 -0.39967,0.08108 -0.54393,0.22531c-0.14426,0.14423 -0.2253,0.33992 -0.2253,0.54392c0,0.204 0.08104,0.39969 0.2253,0.54392c0.14426,0.14423 0.33992,0.22531 0.54393,0.22531h1.51769c0.20402,0 0.39967,-0.08108 0.54393,-0.22531c0.14425,-0.14423 0.2253,-0.33992 0.2253,-0.54392zM4.01692,2.92923c-0.14508,-0.14012 -0.33938,-0.21765 -0.54108,-0.2159c-0.20169,0.00175 -0.39462,0.08265 -0.53725,0.22527c-0.14262,0.14262 -0.22352,0.33555 -0.22527,0.53725c-0.00175,0.20169 0.07578,0.396 0.2159,0.54108l1.61538,1.61538c0.07085,0.07356 0.15565,0.13228 0.24945,0.17272c0.09379,0.04044 0.19469,0.0618 0.29683,0.06282c0.10213,0.00103 0.20345,-0.01829 0.29803,-0.05683c0.09458,-0.03855 0.18055,-0.09554 0.25288,-0.16766c0.07232,-0.07212 0.12956,-0.15792 0.16837,-0.2524c0.03882,-0.09448 0.05842,-0.19574 0.05768,-0.29787c-0.00074,-0.10214 -0.02181,-0.2031 -0.06198,-0.29701c-0.04018,-0.0939 -0.09865,-0.17887 -0.17202,-0.24993z" vector-effect="non-scaling-stroke"/></g><defs><path id="path-170871257081140910" d="M10.76923,0.76923v3.05615c0,0.20402 -0.08108,0.39967 -0.22531,0.54393c-0.14423,0.14425 -0.33992,0.2253 -0.54392,0.2253c-0.204,0 -0.39969,-0.08105 -0.54392,-0.2253c-0.14423,-0.14426 -0.22531,-0.33992 -0.22531,-0.54393v-3.05615c0,-0.20401 0.08108,-0.39967 0.22531,-0.54393c0.14423,-0.14426 0.33992,-0.2253 0.54392,-0.2253c0.204,0 0.39969,0.08104 0.54392,0.2253c0.14423,0.14426 0.22531,0.33992 0.22531,0.54393zM13.82231,6.94692c0.204,-0.00005 0.39962,-0.08112 0.54385,-0.22538l2.70462,-2.70462c0.07346,-0.07096 0.13208,-0.15584 0.17238,-0.24969c0.04031,-0.09385 0.06154,-0.19478 0.06238,-0.29692c0.00092,-0.10214 -0.01854,-0.20343 -0.05723,-0.29796c-0.03869,-0.09454 -0.09577,-0.18042 -0.168,-0.25265c-0.07223,-0.07223 -0.15808,-0.12935 -0.25262,-0.16802c-0.09454,-0.03868 -0.19585,-0.05814 -0.298,-0.05725c-0.10215,0.00088 -0.20308,0.02211 -0.29692,0.06242c-0.09385,0.04032 -0.17877,0.09892 -0.24969,0.17238l-2.70462,2.70462c-0.10754,0.10758 -0.18077,0.24463 -0.21046,0.39382c-0.02969,0.14919 -0.01438,0.30383 0.04377,0.44437c0.05823,0.14054 0.15677,0.26067 0.28323,0.34519c0.12654,0.08453 0.27515,0.12966 0.42731,0.12969zM19.23077,9.23077h-3.82538c-0.204,0 -0.39969,0.08108 -0.54392,0.22531c-0.14423,0.14423 -0.22531,0.33992 -0.22531,0.54392c0,0.204 0.08108,0.39969 0.22531,0.54392c0.14423,0.14423 0.33992,0.22531 0.54392,0.22531h3.82538c0.204,0 0.39969,-0.08108 0.54392,-0.22531c0.14423,-0.14423 0.22531,-0.33992 0.22531,-0.54392c0,-0.204 -0.08108,-0.39969 -0.22531,-0.54392c-0.14423,-0.14423 -0.33992,-0.22531 -0.54392,-0.22531zM14.36615,13.27846c-0.14508,-0.14015 -0.33938,-0.21769 -0.54108,-0.21592c-0.20169,0.00177 -0.39462,0.08269 -0.53723,0.22531c-0.14262,0.14262 -0.22354,0.33554 -0.22531,0.53723c-0.00177,0.20169 0.07577,0.396 0.21592,0.54108l2.70462,2.70462c0.14508,0.14015 0.33938,0.21769 0.54108,0.21592c0.20169,-0.00177 0.39462,-0.08269 0.53723,-0.22531c0.14262,-0.14262 0.22354,-0.33554 0.22531,-0.53723c0.00177,-0.20169 -0.07577,-0.396 -0.21592,-0.54108zM10,14.63615c-0.204,0 -0.39969,0.08108 -0.54392,0.22531c-0.14423,0.14423 -0.22531,0.33992 -0.22531,0.54392v3.82538c0,0.204 0.08108,0.39969 0.22531,0.54392c0.14423,0.14423 0.33992,0.22531 0.54392,0.22531c0.204,0 0.39969,-0.08108 0.54392,-0.22531c0.14423,-0.14423 0.22531,-0.33992 0.22531,-0.54392v-3.82538c0,-0.204 -0.08108,-0.39969 -0.22531,-0.54392c-0.14423,-0.14423 -0.33992,-0.22531 -0.54392,-0.22531zM3.46154,15.45385l-0.52923,0.52923c-0.07347,0.07092 -0.13207,0.15585 -0.17238,0.24969c-0.04032,0.09385 -0.06154,0.19477 -0.06242,0.29692c-0.00088,0.10215 0.01858,0.20346 0.05725,0.298c0.03868,0.09454 0.09579,0.18038 0.16802,0.25262c0.07223,0.07223 0.15812,0.12931 0.25265,0.168c0.09453,0.03869 0.19582,0.05815 0.29796,0.05723c0.10214,-0.00085 0.20308,-0.02208 0.29692,-0.06238c0.09385,-0.04031 0.17873,-0.09892 0.24969,-0.17238l0.52615,-0.53231c0.12602,-0.14715 0.19187,-0.33646 0.18439,-0.53008c-0.00748,-0.19354 -0.08773,-0.37723 -0.22473,-0.51423c-0.13699,-0.137 -0.32064,-0.21723 -0.51424,-0.22469c-0.19359,-0.00746 -0.38288,0.05838 -0.53004,0.18438zM3.05615,10c0,-0.204 -0.08105,-0.39969 -0.2253,-0.54392c-0.14426,-0.14423 -0.33992,-0.22531 -0.54393,-0.22531h-1.51769c-0.20401,0 -0.39967,0.08108 -0.54393,0.22531c-0.14426,0.14423 -0.2253,0.33992 -0.2253,0.54392c0,0.204 0.08104,0.39969 0.2253,0.54392c0.14426,0.14423 0.33992,0.22531 0.54393,0.22531h1.51769c0.20402,0 0.39967,-0.08108 0.54393,-0.22531c0.14425,-0.14423 0.2253,-0.33992 0.2253,-0.54392zM4.01692,2.92923c-0.14508,-0.14012 -0.33938,-0.21765 -0.54108,-0.2159c-0.20169,0.00175 -0.39462,0.08265 -0.53725,0.22527c-0.14262,0.14262 -0.22352,0.33555 -0.22527,0.53725c-0.00175,0.20169 0.07578,0.396 0.2159,0.54108l1.61538,1.61538c0.07085,0.07356 0.15565,0.13228 0.24945,0.17272c0.09379,0.04044 0.19469,0.0618 0.29683,0.06282c0.10213,0.00103 0.20345,-0.01829 0.29803,-0.05683c0.09458,-0.03855 0.18055,-0.09554 0.25288,-0.16766c0.07232,-0.07212 0.12956,-0.15792 0.16837,-0.2524c0.03882,-0.09448 0.05842,-0.19574 0.05768,-0.29787c-0.00074,-0.10214 -0.02181,-0.2031 -0.06198,-0.29701c-0.04018,-0.0939 -0.09865,-0.17887 -0.17202,-0.24993z" vector-effect="non-scaling-stroke"/></defs></g></svg>